<svg width="236" height="46" viewBox="0 0 236 46" fill="none" xmlns="http://www.w3.org/2000/svg">
<g clip-path="url(#clip0_1_362)">
<path d="M28.8033 0.0595703L46.0589 17.437L17.7597 45.9361L0.504074 28.5586L28.8033 0.0595703Z" fill="#233B99"/>
<path d="M11.5572 17.3287L28.8128 -0.0488281L57.112 28.4502L39.8564 45.8277L11.5572 17.3287Z" fill="#FF7549"/>
<path d="M74.1021 13.0979C75.1097 13.0979 76.0207 13.3097 76.8355 13.7331C77.659 14.1566 78.3073 14.7565 78.7804 15.533C79.2535 16.3093 79.49 17.2005 79.49 18.2063C79.49 18.9033 79.3586 19.5561 79.0958 20.1649C78.8417 20.7648 78.4037 21.2104 77.7817 21.5015C79.4988 21.925 80.3573 23.6145 80.3573 26.5701C80.3573 27.4877 80.1076 28.3347 79.6083 29.111C79.1089 29.8875 78.4343 30.5006 77.5845 30.9506C76.7347 31.4005 75.8105 31.6255 74.8117 31.6255H67.1372V13.0979H74.1021ZM73.629 20.0458C73.9794 20.0458 74.2993 19.9663 74.5884 19.8075C74.8862 19.6487 75.1184 19.4281 75.2849 19.1458C75.46 18.8547 75.5477 18.5327 75.5477 18.1798C75.5477 17.6592 75.3636 17.249 74.9957 16.949C74.6278 16.6402 74.1722 16.4858 73.629 16.4858H71.0797V20.0458H73.629ZM74.3912 28.2641C74.8468 28.2641 75.263 28.1582 75.6396 27.9465C76.0164 27.7259 76.3142 27.4259 76.5333 27.0465C76.7522 26.6584 76.8618 26.2261 76.8618 25.7496C76.8618 25.3437 76.7479 24.96 76.5201 24.5982C76.3011 24.2277 76.0032 23.9277 75.6265 23.6984C75.2498 23.469 74.8381 23.3542 74.3912 23.3542H71.0797V28.2641H74.3912ZM92.0286 13.0979C93.0185 13.0979 93.9252 13.3537 94.7488 13.8655C95.5724 14.3772 96.2204 15.0653 96.6934 15.93C97.1759 16.7946 97.4166 17.7386 97.4166 18.7621C97.4166 19.9443 97.1273 21.0031 96.5487 21.9382C95.9711 22.8646 95.1822 23.5704 94.1837 24.0556L98.5462 31.6255H93.9998L89.8471 24.4262H88.4805V31.6255H84.5381V13.0979H92.0286ZM91.5555 20.456C91.8972 20.456 92.2125 20.3678 92.5016 20.1914C92.7995 20.006 93.036 19.7635 93.2112 19.4635C93.3865 19.1546 93.4741 18.8238 93.4741 18.471C93.4741 18.118 93.3865 17.7916 93.2112 17.4916C93.036 17.1828 92.7995 16.9402 92.5016 16.7637C92.2125 16.5784 91.8972 16.4858 91.5555 16.4858H88.4805V20.456H91.5555ZM111.889 13.0979L118.564 31.6255H114.386L113.334 28.714H106.002L104.951 31.6255H100.772L107.448 13.0979H111.889ZM111.889 24.7438L109.655 18.6033L107.448 24.7438H111.889ZM121.727 13.0979H125.984L132.713 24.4527V13.0979H136.655V31.6255H132.397L125.669 20.2707V31.6255H121.727V13.0979ZM147.227 13.0979C148.891 13.0979 150.424 13.5169 151.826 14.3551C153.237 15.1844 154.354 16.3093 155.178 17.7298C156.009 19.1414 156.426 20.6854 156.426 22.3617C156.426 24.038 156.009 25.5864 155.178 27.0068C154.354 28.4185 153.237 29.5433 151.826 30.3815C150.424 31.2108 148.891 31.6255 147.227 31.6255H141.13V13.0979H147.227ZM147.227 27.6553C148.164 27.6553 149.036 27.4215 149.842 26.9539C150.648 26.4774 151.287 25.8334 151.76 25.0217C152.243 24.21 152.484 23.3234 152.484 22.3617C152.484 21.4088 152.243 20.5266 151.76 19.7149C151.287 18.9033 150.648 18.2592 149.842 17.7828C149.036 17.3063 148.164 17.0681 147.227 17.0681H145.071V27.6553H147.227ZM160.618 13.0979H164.561V31.6255H160.618V13.0979ZM169.412 13.0979H173.669L180.398 24.4527V13.0979H184.34V31.6255H180.082L173.354 20.2707V31.6255H169.412V13.0979ZM196.811 31.9696C195.128 31.9696 193.595 31.5373 192.212 30.6726C190.836 29.7992 189.75 28.6258 188.952 27.1524C188.163 25.6791 187.769 24.0733 187.769 22.3352C187.769 20.5089 188.195 18.8679 189.045 17.4122C189.903 15.9565 191.032 14.8228 192.434 14.0111C193.836 13.1905 195.321 12.7803 196.89 12.7803C198.221 12.7803 199.505 13.0935 200.74 13.7199C201.975 14.3463 203.074 15.3036 204.038 16.5917L200.516 18.4974C199.991 17.9063 199.412 17.4651 198.781 17.1739C198.151 16.874 197.503 16.724 196.836 16.724C195.952 16.724 195.115 16.9667 194.327 17.4519C193.548 17.9372 192.917 18.6121 192.434 19.4767C191.953 20.3413 191.712 21.3207 191.712 22.4147C191.712 23.4381 191.944 24.3777 192.409 25.2335C192.873 26.0893 193.499 26.7642 194.287 27.2583C195.076 27.7523 195.934 27.9994 196.863 27.9994C197.704 27.9994 198.506 27.77 199.268 27.3112C200.039 26.8524 200.683 26.1731 201.2 25.2732H198.729V21.8323H205.852C205.861 21.947 205.865 22.1146 205.865 22.3352C205.865 24.0821 205.462 25.6923 204.656 27.1656C203.85 28.6391 202.754 29.808 201.371 30.6726C199.986 31.5373 198.466 31.9696 196.811 31.9696ZM222.575 22.3088L215.899 13.0714H220.761L225.019 18.9473L229.277 13.0714H234.139L227.463 22.3088L234.192 31.6255H229.303L225.019 25.6967L220.735 31.6255H215.847L222.575 22.3088Z" fill="#181A3F"/>
</g>
<defs>
<clipPath id="clip0_1_362">
<rect width="236" height="46" fill="white"/>
</clipPath>
</defs>
</svg>
